<?xml version="1.0" encoding="utf-8"?>
<!-- Generator: Adobe Illustrator 24.2.1, SVG Export Plug-In . SVG Version: 6.00 Build 0)  -->
<svg version="1.1" id="Layer_1" xmlns="http://www.w3.org/2000/svg" xmlns:xlink="http://www.w3.org/1999/xlink" x="0px" y="0px"
	 viewBox="0 0 1500 1500" style="enable-background:new 0 0 1500 1500;" xml:space="preserve">
<style type="text/css">
	.st0{fill:#FFFFFF;}
</style>
<g>
	<path class="st0" d="M217.3,712.8c-15.8-61,27.6-149.7,88.3-167.2c34.9-10.1,54.5-27.3,60.8-63.9c5.8-33.8,11.7-67.3,11.4-101.7
		c-0.1-10.3-2.5-22.7,2.1-30.7c20.4-35.4,1.3-51.4-26.9-67.5c-25.8-14.7-50.7-32.2-70.3-55.2c-11.4-13.4-21.7-29.2-14.1-48.2
		c7.7-19,25.7-22.8,43.4-24.5c29.9-2.8,59.5,0,89.1,5.5c17.3,3.2,25.4,10.2,22.3,29.1c-5.7,34.6,11.8,60.1,39.8,74.3
		c122.1,61.9,253.1,91.3,388.6,102.3c19,1.5,36.9-0.8,47.4-21.3c6.2-12.1,18.2-8.9,27.4-4.4c36.2,17.6,72.3,36.3,102.2,63.3
		c20,18,41.1,30.9,66.5,37.1c71.7,17.4,114.6,69.9,153.4,127c12.2,17.9,12.1,39.3,6.6,60.2c-9.8,37.1-19.1,74.3-29.8,111.1
		c-5,17,0,26.8,16.6,29.1c48.2,6.6,64.6,35.9,70,82.5c11.2,97,15.6,194.2,19.6,291.5c3.2,75.3,12.3,150.6-4.2,226.2
		c-22.4,102.6-46.5,126.1-150.6,122.1c-125.7-4.8-245.7-27.8-338.6-125.2c-14-14.6-33.1-24.3-49.9-36.2c-12.5-8.8-24.4-8-37.1,0.9
		c-55.7,39.2-108.5,81.9-154,132.9c-14.6,16.4-21.2,20.6-35-1.6c-11.4-18.3-24-35.9-33.3-55.5c-41.2-87-90.1-169.9-136.1-254.3
		c-57.2-105.1-114.3-210-146.2-318.9 M612.3,666.1c13.1,29.3,24.9,50.9,52.3,59.4c25.6,7.9,50.6,17.3,76.1,25.4
		c44.1,14.1,89.9,22.9,132.5,41.6c33.9,14.9,60,37.6,61.7,78c3.1,74.4,19.4,143,75.2,197.2c7.7,7.5,10.9,23.5,24.3,18.3
		c11.2-4.4,5.5-18.6,5.1-28.2c-3.8-83.8-8.3-167.6-12.5-251.4c-0.9-18.9-2.6-40.5,20.9-46.1c22.6-5.4,15.6-16,9.2-28.7
		c-13.1-25.9-27.1-51.3-38.6-77.9c-12.1-28-21.2-54.8-10.7-88.4c17.5-56-7.4-86.3-64.8-85.9c-22.5,0.1-49.5-15-66.1-0.8
		c-20.7,17.7,1.4,44.1,2.8,66.9c1.5,23.5-8.2,36.4-31.7,34.8c-21-1.4-37.4-0.7-44.9,25.1c-3.2,11.1-17.8,19.2-28.1,27.7
		c-7.2,5.9-13.9,10.9-17.1,20.8c-13.1,39.8-35.6,51.4-75,38.6C660.6,685.4,639.2,676.3,612.3,666.1z"/>
	<path class="st0" d="M577.2,9.9C690.5,23.3,802.7,42.1,908,90.4c14.4,6.6,23.8,15.3,24.3,32.2c1.5,55.6-17.4,107.7-28.4,161
		c-3.7,17.8-22.5,15.8-36.5,15.7c-43.4-0.4-85.9-9.2-128-18.6c-91.2-20.4-183.9-36.8-264-90.3c-34-22.7-39.5-35.5-22.4-71.6
		c12.7-26.9,27.6-53.2,44.6-77.6C516.4,14.3,544.8,6,577.2,9.9z"/>
</g>
</svg>
