<?xml version="1.0" encoding="utf-8"?>
<!-- Generator: Adobe Illustrator 24.2.1, SVG Export Plug-In . SVG Version: 6.00 Build 0)  -->
<svg version="1.1" id="Layer_1" xmlns="http://www.w3.org/2000/svg" xmlns:xlink="http://www.w3.org/1999/xlink" x="0px" y="0px"
	 viewBox="0 0 1500 1500" style="enable-background:new 0 0 1500 1500;" xml:space="preserve">
<style type="text/css">
	.st0{fill:#FFFFFF;}
</style>
<g>
	<path class="st0" d="M1131.8,841.5c-13.6-14.8-21.5-29.2-39.2-22.7c-15.8,5.8-15.5,21-18.7,33.5c-6.9,27-8.8,55.4-22.7,79.3
		c-9.6,3.5-10.7-3.6-13.5-7.7c-3.6-5.3-5.1-13.9-13.9-11.6c-7.6,2-8.4,10.2-9.9,16.5c-8.1,32.8-15.4,65.7-23.5,98.5
		c-3.5,14.2-7.7,28.2-12.6,42c-4,11.4-5.8,27.1-19.6,29.2c-12,1.9-12.4-13.9-18.4-21.5c-19.5-24.4-44.3-22.5-62,7.6
		c-33,56.3-64.2,113.7-96.8,170.3c-5.8,10-9.1,23.4-23.2,26.8c-15.7-38.9-17.2-39.1-44.7-5.6c-49.9,61-99.6,122.1-149.9,182.7
		c-8.6,10.4-16.1,30.6-33.3,20.5c-16.7-9.8-3.6-27,0.8-39.6c41.8-121.4,49.3-244.2,16.5-368.8c-4-15.2-8.6-30.3-13.9-45.1
		c-5.2-14.5-11.9-21.6-25.5-5.5c-17.3,20.5-27.5,8.8-30.9-10.6c-4.6-26.6-6.4-53.6-10-80.4c-3.1-22.9-10-39.3-36-18.5
		c-6.1,4.9-12.8,10.3-21.2,5.2c-9.2-5.7-9.1-15-7.5-24.1c5.4-30.6,0.4-60.6-4.8-90.6c-1.5-8.7-4.8-19.2-15.4-19.8
		c-12.4-0.7-11.9,11.1-14,19.5c-3.6,14.2-6.3,28.6-10.9,42.4c-4.9,14.8-12.7,27.5-32,19.5c-19.4-8-26.6,5.8-33.5,18.9
		c-13.3,25.2-17.3,53.4-24.9,80.4c-2.9,10.4-3.6,24.6-18.6,24.3c-12.6-0.2-14.9-12.6-17-22.2c-18.8-85.8-40.2-171.2-47.2-258.9
		c-9.3-116.3,55.9-202.5,170.1-229.4c31.7-7.5,64.1-12.4,96.3-17.5c40.2-6.5,63.4-30.2,75-68.3c20.3-66.8,32.9-135.6,56.6-201.5
		c17.1-47.4,41.4-90,78.6-124.3C745.5-14.1,866.4,9.3,915,114.4c34.1,73.6,43.3,153.4,54.2,232.6c12.7,91.8,32.4,114.6,121.8,137.8
		c14.2,3.7,28.4,9.4,42.7,9.8c126.9,3.7,210.6,167.1,175.5,277.3c-10.2,32.1-20.3,64.4-32.3,95.9c-5.2,13.7-7.8,35.6-27.6,33.4
		c-17.9-2-14.1-23.1-17.4-36.5c-5.1-20.7-7.3-42.1-12.3-62.9c-3.7-15.4-9.4-31.6-27.5-9.8c-6.5,7.9-15.8,12.3-23.1,3.6
		c-21.3-25.4-22.8-4.8-27.1,10.7C1139.3,815.9,1136.4,825.4,1131.8,841.5z M891.2,262.3c-2.4-20.2-5.7-38.9-14.5-56.2
		c-10.4-20.3-26-34.5-49.4-35.1c-22.5-0.6-37.2,13.7-48.1,31.7c-13.6,22.7-19.7,47.7-17.3,74.1c3.9,42.6,30.8,76,61.6,77.9
		c30.7,1.9,54.8-24.4,64.3-70.3C889.4,276.7,890.2,268.9,891.2,262.3z M645.9,277.5c0.6,30.7,15.1,51,36.7,51.6
		c25.5,0.7,43.7-26.6,42.1-65.4c-1-24.1-4.4-49.1-35.2-52.3C666.7,209,645.2,243.3,645.9,277.5z"/>
</g>
</svg>
